<?xml version="1.0" encoding="UTF-8" standalone="no"?>
<!DOCTYPE svg PUBLIC "-//W3C//DTD SVG 1.1//EN"
 "http://www.w3.org/Graphics/SVG/1.1/DTD/svg11.dtd">
<!-- Generated by graphviz version 2.46.0 (20210118.1747)
 -->
<!-- Title: snakemake_dag Pages: 1 -->
<svg width="802pt" height="260pt"
 viewBox="0.00 0.00 801.50 260.00" xmlns="http://www.w3.org/2000/svg" xmlns:xlink="http://www.w3.org/1999/xlink">
<g id="graph0" class="graph" transform="scale(1 1) rotate(0) translate(4 256)">
<title>snakemake_dag</title>
<polygon fill="white" stroke="transparent" points="-4,4 -4,-256 797.5,-256 797.5,4 -4,4"/>
<!-- 0 -->
<g id="node1" class="node">
<title>0</title>
<path fill="none" stroke="#9fd856" stroke-width="2" stroke-dasharray="5,2" d="M438,-36C438,-36 408,-36 408,-36 402,-36 396,-30 396,-24 396,-24 396,-12 396,-12 396,-6 402,0 408,0 408,0 438,0 438,0 444,0 450,-6 450,-12 450,-12 450,-24 450,-24 450,-30 444,-36 438,-36"/>
<text text-anchor="middle" x="423" y="-15.5" font-family="sans" font-size="10.00">run_all</text>
</g>
<!-- 1 -->
<g id="node2" class="node">
<title>1</title>
<path fill="none" stroke="#56d8c9" stroke-width="2" stroke-dasharray="5,2" d="M214.5,-108C214.5,-108 107.5,-108 107.5,-108 101.5,-108 95.5,-102 95.5,-96 95.5,-96 95.5,-84 95.5,-84 95.5,-78 101.5,-72 107.5,-72 107.5,-72 214.5,-72 214.5,-72 220.5,-72 226.5,-78 226.5,-84 226.5,-84 226.5,-96 226.5,-96 226.5,-102 220.5,-108 214.5,-108"/>
<text text-anchor="middle" x="161" y="-87.5" font-family="sans" font-size="10.00">generate_transport_profile</text>
</g>
<!-- 1&#45;&gt;0 -->
<g id="edge1" class="edge">
<title>1&#45;&gt;0</title>
<path fill="none" stroke="grey" stroke-width="2" d="M224.76,-71.97C275.27,-58.47 344.09,-40.08 385.94,-28.9"/>
<polygon fill="grey" stroke="grey" stroke-width="2" points="386.95,-32.25 395.71,-26.29 385.15,-25.49 386.95,-32.25"/>
</g>
<!-- 2 -->
<g id="node3" class="node">
<title>2</title>
<path fill="none" stroke="#ced856" stroke-width="2" stroke-dasharray="5,2" d="M218.5,-180C218.5,-180 103.5,-180 103.5,-180 97.5,-180 91.5,-174 91.5,-168 91.5,-168 91.5,-156 91.5,-156 91.5,-150 97.5,-144 103.5,-144 103.5,-144 218.5,-144 218.5,-144 224.5,-144 230.5,-150 230.5,-156 230.5,-156 230.5,-168 230.5,-168 230.5,-174 224.5,-180 218.5,-180"/>
<text text-anchor="middle" x="161" y="-159.5" font-family="sans" font-size="10.00">generate_transport_network</text>
</g>
<!-- 2&#45;&gt;1 -->
<g id="edge5" class="edge">
<title>2&#45;&gt;1</title>
<path fill="none" stroke="grey" stroke-width="2" d="M161,-143.7C161,-135.98 161,-126.71 161,-118.11"/>
<polygon fill="grey" stroke="grey" stroke-width="2" points="164.5,-118.1 161,-108.1 157.5,-118.1 164.5,-118.1"/>
</g>
<!-- 3 -->
<g id="node4" class="node">
<title>3</title>
<path fill="none" stroke="#d8b456" stroke-width="2" stroke-dasharray="5,2" d="M130,-252C130,-252 12,-252 12,-252 6,-252 0,-246 0,-240 0,-240 0,-228 0,-228 0,-222 6,-216 12,-216 12,-216 130,-216 130,-216 136,-216 142,-222 142,-228 142,-228 142,-240 142,-240 142,-246 136,-252 130,-252"/>
<text text-anchor="middle" x="71" y="-231.5" font-family="sans" font-size="10.00">download_vehicle_population</text>
</g>
<!-- 3&#45;&gt;2 -->
<g id="edge6" class="edge">
<title>3&#45;&gt;2</title>
<path fill="none" stroke="grey" stroke-width="2" d="M93.25,-215.7C104.58,-206.88 118.53,-196.03 130.82,-186.47"/>
<polygon fill="grey" stroke="grey" stroke-width="2" points="133.26,-189.01 139.01,-180.1 128.97,-183.48 133.26,-189.01"/>
</g>
<!-- 4 -->
<g id="node5" class="node">
<title>4</title>
<path fill="none" stroke="#70d856" stroke-width="2" stroke-dasharray="5,2" d="M329.5,-252C329.5,-252 172.5,-252 172.5,-252 166.5,-252 160.5,-246 160.5,-240 160.5,-240 160.5,-228 160.5,-228 160.5,-222 166.5,-216 172.5,-216 172.5,-216 329.5,-216 329.5,-216 335.5,-216 341.5,-222 341.5,-228 341.5,-228 341.5,-240 341.5,-240 341.5,-246 335.5,-252 329.5,-252"/>
<text text-anchor="middle" x="251" y="-231.5" font-family="sans" font-size="10.00">download_zip_climate_zone_matching</text>
</g>
<!-- 4&#45;&gt;2 -->
<g id="edge7" class="edge">
<title>4&#45;&gt;2</title>
<path fill="none" stroke="grey" stroke-width="2" d="M228.75,-215.7C217.42,-206.88 203.47,-196.03 191.18,-186.47"/>
<polygon fill="grey" stroke="grey" stroke-width="2" points="193.03,-183.48 182.99,-180.1 188.74,-189.01 193.03,-183.48"/>
</g>
<!-- 5 -->
<g id="node6" class="node">
<title>5</title>
<path fill="none" stroke="#5682d8" stroke-width="2" stroke-dasharray="5,2" d="M399.5,-108C399.5,-108 256.5,-108 256.5,-108 250.5,-108 244.5,-102 244.5,-96 244.5,-96 244.5,-84 244.5,-84 244.5,-78 250.5,-72 256.5,-72 256.5,-72 399.5,-72 399.5,-72 405.5,-72 411.5,-78 411.5,-84 411.5,-84 411.5,-96 411.5,-96 411.5,-102 405.5,-108 399.5,-108"/>
<text text-anchor="middle" x="328" y="-87.5" font-family="sans" font-size="10.00">generate_transport_supplementary</text>
</g>
<!-- 5&#45;&gt;0 -->
<g id="edge2" class="edge">
<title>5&#45;&gt;0</title>
<path fill="none" stroke="grey" stroke-width="2" d="M351.48,-71.7C363.56,-62.8 378.45,-51.82 391.52,-42.2"/>
<polygon fill="grey" stroke="grey" stroke-width="2" points="393.81,-44.85 399.79,-36.1 389.66,-39.22 393.81,-44.85"/>
</g>
<!-- 6 -->
<g id="node7" class="node">
<title>6</title>
<path fill="none" stroke="#d88556" stroke-width="2" stroke-dasharray="5,2" d="M594.5,-108C594.5,-108 441.5,-108 441.5,-108 435.5,-108 429.5,-102 429.5,-96 429.5,-96 429.5,-84 429.5,-84 429.5,-78 435.5,-72 441.5,-72 441.5,-72 594.5,-72 594.5,-72 600.5,-72 606.5,-78 606.5,-84 606.5,-84 606.5,-96 606.5,-96 606.5,-102 600.5,-108 594.5,-108"/>
<text text-anchor="middle" x="518" y="-87.5" font-family="sans" font-size="10.00">dummy_generate_appliance_network</text>
</g>
<!-- 6&#45;&gt;0 -->
<g id="edge3" class="edge">
<title>6&#45;&gt;0</title>
<path fill="none" stroke="grey" stroke-width="2" d="M494.52,-71.7C482.44,-62.8 467.55,-51.82 454.48,-42.2"/>
<polygon fill="grey" stroke="grey" stroke-width="2" points="456.34,-39.22 446.21,-36.1 452.19,-44.85 456.34,-39.22"/>
</g>
<!-- 7 -->
<g id="node8" class="node">
<title>7</title>
<path fill="none" stroke="#56b1d8" stroke-width="2" stroke-dasharray="5,2" d="M781.5,-108C781.5,-108 636.5,-108 636.5,-108 630.5,-108 624.5,-102 624.5,-96 624.5,-96 624.5,-84 624.5,-84 624.5,-78 630.5,-72 636.5,-72 636.5,-72 781.5,-72 781.5,-72 787.5,-72 793.5,-78 793.5,-84 793.5,-84 793.5,-96 793.5,-96 793.5,-102 787.5,-108 781.5,-108"/>
<text text-anchor="middle" x="709" y="-87.5" font-family="sans" font-size="10.00">dummy_generate_storage_network</text>
</g>
<!-- 7&#45;&gt;0 -->
<g id="edge4" class="edge">
<title>7&#45;&gt;0</title>
<path fill="none" stroke="grey" stroke-width="2" d="M639.4,-71.97C582.95,-58.15 505.57,-39.21 460.26,-28.12"/>
<polygon fill="grey" stroke="grey" stroke-width="2" points="460.83,-24.66 450.29,-25.68 459.17,-31.46 460.83,-24.66"/>
</g>
</g>
</svg>
